<?xml version="1.0" encoding="utf-8" ?>
<svg xmlns="http://www.w3.org/2000/svg" xmlns:xlink="http://www.w3.org/1999/xlink" width="1024" height="1024">
	<path d="M506.337 315.612C510.162 315.052 515.282 315.022 518.879 316.602C523.406 318.59 525.734 322.656 527.537 327.027C531.47 324.9 534.89 323.355 539.451 323.035C548.451 322.403 557.291 326.348 563.946 332.203C582.533 348.556 591.419 381.123 591.893 405.33C591.968 409.187 588.545 412.003 588.743 415.18C590.995 418.537 591.747 422.112 591.612 426.154C591.342 434.17 586.886 440.55 581.331 445.893C587 447.738 592.294 449.921 596.887 453.826C604.808 460.559 608.758 470.961 609.516 481.109C610.33 492 608.537 502.33 601.202 510.799C595.341 517.567 587.496 520.625 578.73 521.204C570.619 521.739 562.091 520.438 555.804 514.907C552.217 518.149 548.943 520.099 544.488 521.98C544.559 533.203 545.346 544.376 545.551 555.589C548.761 556.526 551.706 557.75 554.683 559.272C572.658 568.46 588.102 580.901 602.182 595.254C642.978 636.84 665.775 690.342 683.26 745.101C687.224 734.611 688.853 720.654 691.276 709.408Q700.128 666.917 708.235 624.278C711.047 609.115 712.963 593.737 716.57 578.732C717.892 573.232 720.218 560.746 725.556 557.877C728.994 556.028 748.908 557.842 754.411 557.824C770.838 557.771 787.26 556.833 803.718 556.849Q841.891 557.147 879.898 560.708C887.689 561.434 897.831 561.376 905.165 564.07C907.01 564.748 908.115 565.635 908.811 567.507C910.899 573.131 908.899 581.4 907.944 587.206C904.149 610.293 898.51 633.219 893.272 656.016L873.862 740.931C870.859 753.862 868.188 766.902 865.33 779.869C863.485 788.241 861.959 797.124 858.613 805.034C857.514 805.978 856.766 805.974 855.333 806.015C848.856 806.201 842.197 805.721 835.717 805.525L797.691 804.236L697.107 801.173C697.097 804.834 696.821 808.462 696.549 812.112Q723.487 811.425 750.42 812.277C758.028 812.48 765.996 812.119 773.497 813.506C776.596 814.079 779.743 815.067 782.156 817.177C784.372 819.114 785.751 821.809 785.816 824.77C785.878 827.578 784.68 830.213 782.763 832.228C779.736 835.41 775.561 836.779 771.312 837.348C765.545 838.12 759.292 837.59 753.471 837.642L718.799 838.055L621.962 838.436C605.782 838.528 589.502 838.144 573.343 838.881C536.89 838.435 500.354 839.191 463.896 839.481L371.322 839.836L312.984 840.282C303.528 840.39 293.909 841.299 284.474 840.711C280.912 840.49 276.612 839.995 273.835 837.542C271.87 835.806 270.835 833.017 270.688 830.447C270.462 826.499 272.174 822.758 274.87 819.946C276.754 817.979 279.16 816.293 281.738 815.381C293.116 811.356 315.535 811.927 328.081 811.92C328.074 808.383 327.812 804.875 327.556 801.349C322.154 801.697 316.665 801.511 311.247 801.641L267.402 802.618L211.784 804.753C201.598 805.132 174.852 807.096 166.213 804.43C165.04 803.377 164.187 802.487 163.548 801.016C160.273 793.479 158.675 784.802 156.821 776.801C152.753 759.242 149.493 741.492 145.616 723.887L129.555 651.868C124.521 629.476 119.432 607.041 116.086 584.32C115.383 579.55 113.616 570.815 115.797 566.337C116.528 564.836 119.378 564.05 120.87 563.619C131.428 560.574 144.029 560.603 155.018 559.752C179.238 557.875 203.66 556.329 227.957 556.287C244.277 556.259 260.666 557.086 276.971 557.729C283.442 557.984 296.043 556.789 301.381 559.938C303.7 561.306 304.218 564.954 304.869 567.42C311.529 592.644 315.409 618.707 320.344 644.306Q328.154 682.918 337.42 721.208C339.89 708.856 345.148 696.213 350.556 684.844C372.4 638.92 399.406 607.424 441.315 578.672C454.02 569.956 468.318 561.062 482.912 555.885C483.639 544.356 483.462 532.706 483.446 521.157C477.477 519.096 472.951 516.396 468.773 511.623C465.112 514.699 461.373 516.933 456.845 518.494C447.738 521.633 437.652 521.348 428.963 517.065C420.672 512.978 413.679 506.24 410.726 497.332C406.605 484.899 407.772 469.707 413.737 458.066C419.041 447.715 427.735 441.995 438.589 438.579C435.675 435.74 433.875 432.516 432.978 428.509C431.769 423.104 432.899 418.319 433.058 412.925C433.202 408.008 432.888 403.079 433.25 398.167C434.339 383.389 439.17 366.958 447.24 354.458C460.237 334.327 483.214 320.538 506.337 315.612ZM289.343 564.116C274.933 562.319 259.549 562.648 245.009 562.529C236.594 562.46 227.872 561.934 219.51 562.767C209.182 562.771 125.314 566.141 120.426 570.225C118.75 579.368 134.504 645.653 137.534 659.503L155.841 743.323C159.123 758.243 161.544 773.376 165.395 788.172Q166.952 793.99 169.417 799.485C183.53 800.464 198.215 799.401 212.336 798.713C217.966 798.439 223.68 798.599 229.288 798.124C251.111 797.946 272.93 796.779 294.732 796.057C306.598 795.664 318.205 795.95 330.071 794.801C329.578 786.916 327.373 778.881 325.996 771.088C323.25 755.549 320.685 740.027 317.694 724.527C312.376 696.966 308.179 669.268 302.274 641.805C297.604 620.086 289.1 585.649 289.343 564.116ZM735.336 563.115C736.463 585.411 730.774 607.336 726.152 629.008L716.889 673.713C711.642 699.327 707.449 725.12 702.436 750.779C701.628 754.916 694.679 792.247 696.649 794.308C703.755 795.786 711.174 795.816 718.406 796.129C733.191 796.769 747.959 796.745 762.747 797.145C782.566 797.68 802.656 799.811 822.465 799.525C833.171 800.548 844.039 799.413 854.675 800.509C859.096 778.11 864.285 755.737 869.361 733.48C874.252 712.035 906 580.861 903.772 570.341C895.927 565.052 789.053 560.776 775.989 562.721C762.644 563.618 748.723 563.458 735.336 563.115ZM349.755 790.307C348.138 794.154 346.643 796.855 342.534 798.413C339.725 799.478 336.431 799.948 333.485 800.519C333.276 804.125 333.356 807.64 333.537 811.246C345.07 811.544 356.622 811.244 368.158 811.142C374.011 811.09 380.433 811.625 386.214 810.716C386.552 809.839 386.382 809.772 386.234 808.87C385.503 804.401 387.006 798.619 387.435 794.064L389.617 768.88C389.632 764.523 391.315 741.311 393.913 739.35C394.539 738.878 394.952 739.256 395.575 739.476C397.749 742.159 397.542 745.617 397.189 748.883C396.313 757.009 390.958 806.891 392.139 810.563C399.865 810.307 407.583 810.727 415.31 810.768C436.894 810.883 458.557 811.219 480.134 811.018C481.033 794.415 483.439 777.878 485.373 761.368L496.58 667.066C499.139 645.211 501.976 623.139 502.934 601.15C501.023 603.832 498.783 607.847 495.567 609.031C493.604 608.815 492.609 608.141 491.437 606.618C488.652 603 486.523 597.819 485.455 593.39C484.123 587.864 482.728 564.723 481.825 562.86C481.731 562.665 481.476 562.604 481.301 562.476C430.938 586.151 388.82 623.797 362.845 673.363C354.692 688.922 348.453 705.138 342.518 721.636C341.325 724.952 339.964 728.637 339.835 732.195C339.644 737.43 341.736 743.843 342.767 748.99C345.445 762.364 348.928 776.698 349.755 790.307ZM526.667 605.738C527.367 624.643 530.593 643.793 532.372 662.65Q537.183 711.452 540.009 760.41C540.993 777.139 542.142 793.631 542.28 810.408C557.481 811.909 573.444 811.058 588.751 811.112C603.021 811.162 617.719 811.974 631.948 811.224C631.433 797.705 632.186 786.935 630.589 773.03C629.788 766.06 626.243 749.665 628.457 743.57L629.366 742.748C630.567 742.885 631.287 743.112 632.113 744.07C633.678 745.885 635.909 774.31 636.206 778.588C636.478 782.339 637.231 810.708 637.552 811.142C646.758 812.107 656.464 811.215 665.714 811.128C673.947 811.05 682.161 811.658 690.398 811.482C690.768 808.144 690.96 804.954 690.876 801.596C685.133 798.526 679.94 795.46 677.863 788.819C675.379 780.873 679.706 764.762 681.768 756.68L681.446 756.059C678.59 750.439 676.818 744.053 674.756 738.085C670.816 726.678 667.033 715.203 662.56 703.991C646.447 663.604 628.847 631.116 598.296 599.738C587.01 588.146 574.873 577.696 561.001 569.293C555.896 566.202 550.558 562.624 545.095 560.23C544.338 573.903 545.069 591 534.073 601.019C531.905 602.995 529.228 604.342 526.667 605.738ZM502.584 517.539C516.219 518.513 538.984 522.327 550.123 513.004C557.434 506.886 560.166 496.743 560.747 487.615C561.384 477.61 560.445 467.757 560.115 457.772Q559.508 435.621 559.443 413.461C554.262 413.556 547.983 413.994 543.949 410.096C535.45 401.883 526.905 358.136 521.715 357.411C519.67 358.378 517.473 359.319 515.753 360.815C504.195 370.862 494.21 404.773 482.137 409.121C477.071 410.945 470.516 409.181 465.423 408.023Q466.024 426.963 465.23 445.896C464.61 460.387 462.118 480.642 465.18 494.487C466.454 500.25 469.352 505.954 473.7 510.006C481.899 517.645 492.149 517.124 502.584 517.539ZM448.094 406.237Q444.187 409.523 440.358 412.901C438.333 418.791 437.143 424.379 439.983 430.291C442.483 435.498 446.422 437.721 451.552 439.683C454.57 440.304 457.473 440.587 460.545 440.775C460.497 429.387 461.167 418.134 460.428 406.743C456.284 406.05 452.287 405.845 448.094 406.237ZM510.564 581.105C510.598 576.969 510.976 572.843 510.998 568.716C502.504 567.832 493.997 563.922 486.639 559.725C486.422 567.655 488.387 596.371 494.355 601.451C494.738 601.778 494.984 601.836 495.416 601.998C498.011 601.199 501.222 595.417 502.889 593.068L510.564 581.105ZM578.877 440.93C583.168 435.856 587.129 430.542 586.371 423.472C585.956 419.608 583.971 416.225 580.885 413.885C576.581 410.621 570.263 409.306 564.934 409.444C562.715 412.616 564.984 441.672 565.046 447.588C570.368 446.047 574.267 443.996 578.877 440.93ZM515.909 568.848C516.009 573.017 516.267 577.14 516.627 581.295Q520.413 586.021 523.907 590.967C525.839 593.338 527.743 595.734 529.829 597.973C537.871 590.115 539.818 577.497 540.012 566.683C540.027 565.825 539.938 565.063 539.79 564.221L539.171 564.037C531.828 566.889 523.681 567.842 515.909 568.848ZM708.053 832.965C721.781 832.436 735.601 832.657 749.346 832.486C756.45 832.398 763.817 832.763 770.843 831.566C773.333 831.141 776.137 830.484 777.938 828.594C779.343 827.119 780.352 825.786 780.272 823.67C779.498 821.789 778.251 820.999 776.443 820.252C772.472 818.613 768.018 818.096 763.763 817.916C737.084 816.788 710.102 817.418 683.39 817.296L525.946 816.462L405.795 816.051Q382.529 815.876 359.265 816.209C355.479 816.282 351.558 816.008 347.801 816.211C333.771 817.325 319.544 816.865 305.473 817.571C299.973 817.847 294.113 817.911 288.754 819.214C284.94 820.141 280.573 821.802 278.035 824.927C276.837 826.402 275.755 829.194 276.346 831.108C276.779 832.507 278.104 833.235 279.399 833.72C281.774 834.611 284.356 834.951 286.878 835.087C296.838 835.623 306.97 834.769 316.946 834.618L366.81 834.278L593.114 832.981Q631.33 832.593 669.547 832.772C682.291 832.771 695.359 832.196 708.053 832.965ZM487.534 521.506C488.21 532.824 488.204 543.963 488.091 555.287C498.861 562.179 511.718 565.351 524.244 562.651C528.391 561.757 532.395 560.5 536.424 559.188L540.249 557.748C540.117 546.166 540.344 534.461 539.431 522.915C528.319 523.919 517.505 523.106 506.408 522.563C500.149 522.258 493.75 522.247 487.534 521.506ZM294.566 563.297C294.207 572.56 296.286 581.826 297.926 590.908C300.585 605.626 303.739 620.197 306.835 634.825C313.615 666.866 319.128 699.111 325.132 731.299Q328.807 750.856 332.182 770.467C333.566 778.411 335.289 786.42 335.798 794.475C337.781 793.891 339.745 793.357 341.625 792.484C343.106 791.041 343.702 789.874 343.735 787.782C343.788 784.38 342.595 780.846 342.091 777.484C339.599 760.862 336.131 744.652 332.581 728.234C325.581 695.854 318.625 663.572 312.514 631.01C309.332 614.06 306.207 597.173 302.511 580.324C301.646 576.38 300.931 570.153 299.82 566.686C299.553 565.852 299.085 565.036 298.485 564.398C297.389 563.232 296.031 563.335 294.566 563.297ZM726.259 563.248C725.601 568.037 723.851 572.709 722.68 577.397C721.186 583.38 720.05 589.508 718.945 595.573Q707.89 659.544 694.381 723.043C691.458 737.214 688.182 751.323 685.581 765.554C684.631 770.75 683.279 776.234 683.001 781.5C682.834 784.657 683.515 787.782 685.39 790.372C686.296 791.624 687.386 792.62 688.583 793.583L689.732 793.122C690.913 789.853 692.589 773.562 693.406 768.75C697.145 746.713 701.421 724.691 705.427 702.694C710.32 675.825 716.268 649.16 721.812 622.42C724.378 610.044 727.185 597.599 729.125 585.11C729.984 579.582 731.849 569.078 729.503 563.864C728.341 563.323 727.515 563.3 726.259 563.248Z"/>
	<path d="M171.626 624.834Q173.324 624.89 174.984 625.251C179.553 626.231 223.388 644.275 224.924 645.82C225.24 646.138 225.409 646.574 225.652 646.951C225.706 648.431 225.338 649.289 224.737 650.591C217.321 649.114 174.311 632.493 171.356 628.292C171.034 626.85 171.211 626.201 171.626 624.834Z"/>
	<path d="M178.763 669.696C184.118 670.275 189.988 672.853 195.089 674.611C199.249 676.044 216.905 681.36 219.172 683.705C219.505 684.05 219.592 684.567 219.802 684.997C219.7 686.322 219.471 686.785 218.633 687.81C218.365 687.795 218.096 687.786 217.829 687.764C212.869 687.366 180.124 676.493 177.915 673.804C177.589 672.31 178.244 671.071 178.763 669.696Z"/>
	<path d="M849.689 626.027C851.367 626.046 852.001 625.902 853.456 626.798C853.936 628.116 854.022 628.263 853.692 629.611C848.427 633.273 839.976 634.977 833.925 637.265C823.631 641.157 813.286 645.196 803.318 649.858C801.634 650.134 801.283 650.252 799.639 649.601C798.792 648.459 798.778 648.53 798.919 647.123C803.637 640.166 840.198 628.756 849.689 626.027Z"/>
	<path d="M841.672 671.052C843.184 671.091 843.5 670.93 844.657 671.863C845.078 673.141 845.156 673.763 844.872 675.082C842.663 677.278 811.878 686.443 806.375 687.938C804.956 687.738 803.375 687.33 802.308 686.353L802.446 685.309C807.257 679.737 833.973 673.224 841.672 671.052Z"/>
	<path d="M512.899 409.077C514.156 409.333 514.828 409.623 515.862 410.383C516.308 411.189 516.724 411.85 516.67 412.814C516.552 414.933 515.274 416.494 513.824 417.894C512.423 417.088 511.447 416.4 510.641 414.963C510.03 413.873 509.609 412.507 510.121 411.29C510.699 409.919 511.68 409.665 512.899 409.077Z"/>
	<path d="M501.741 182.186C513.005 181.787 524.57 182.252 535.815 183.004C567.5 185.123 598.468 201.399 619.317 225.196C637.899 213.508 653.376 207.556 675.1 204.464C713.764 198.959 752.358 204.479 790.504 210.846C827.859 217.08 870.043 223.5 901.054 247.031C927.063 266.767 933.39 288.399 928.395 319.863C928.104 321.695 927.902 323.817 927.148 325.517C925.694 328.798 924.214 329.446 924.79 333.267C924.87 333.798 924.987 334.283 924.985 334.815C924.959 341.893 915.621 369.737 913.049 378.203C910.021 388.166 907.369 398.241 904.327 408.196C899.926 422.594 895.002 436.869 890.196 451.138C887.72 458.486 885.48 465.942 882.738 473.197C882.132 474.8 881.395 476.971 880.152 478.173C878.557 479.713 873.68 477.593 872.091 476.827C865.93 473.855 860.225 469.649 854.112 466.452C836.855 457.428 819.417 450.561 800.743 445.051C769.982 435.975 738.598 430.778 706.806 426.987C690.667 425.062 674.584 423.265 658.309 423.09C646.021 422.957 633.615 423.548 621.343 424.146C615.495 424.43 609.089 425.329 603.279 424.856C602.16 424.765 600.093 424.535 599.428 423.523C596.977 419.788 598.029 406.883 597.297 401.682C592.266 365.907 576.999 307.661 583.432 273.042C586.855 254.629 598.797 239.131 614.015 228.706C613.508 228.047 612.962 227.426 612.404 226.81C595.965 208.648 568.946 195.327 545.141 190.686C537.625 189.221 529.828 188.822 522.189 188.431C518.66 188.046 514.929 188.118 511.371 188.16C473.25 188.611 440.499 197.192 413.048 225.311C422.716 231.2 431.205 240.4 436.345 250.488C453.472 284.097 436.338 353.889 430.053 390.518C429.298 394.916 428.501 399.327 427.97 403.759C427.431 408.251 427.58 416.104 426.032 420.038C424.92 422.863 416.104 421.053 413.416 420.77C387.317 418.015 361.32 419.348 335.24 421.559C301.84 424.39 269.512 430.83 237.153 439.335C223.406 442.948 207.073 447.311 193.999 452.864Q179.187 459.048 165.168 466.864C160.458 469.451 151.522 475.788 146.845 477.169C146.103 477.388 145.593 477.396 144.915 477.042C143.204 476.147 142.104 474.37 141.301 472.671C139.785 469.463 138.809 465.849 137.643 462.492Q133.083 449.255 128.871 435.904C123.161 418.312 118.072 400.667 112.689 382.99C109.516 372.566 105.967 362.251 103.069 351.744C101.937 347.641 98.7333 337.793 98.4786 333.99C98.4017 332.842 98.9165 331.808 98.7362 330.684C98.1645 327.122 96.1369 323.273 95.1678 319.726C90.9643 304.343 92.0001 282.191 100.058 268.266C114.33 243.601 146.812 227.749 173.392 220.558Q200.673 213.43 228.456 208.616C272.489 200.606 324.766 193.561 368.607 204.889C382.206 208.403 394.526 214.482 406.643 221.429C406.799 221.239 406.952 221.046 407.111 220.858C411.314 215.871 417.547 211.448 422.831 207.582C449.013 188.427 470.254 184.26 501.741 182.186ZM147.065 469.65C164.579 459.694 182.113 450.285 201.003 443.1C207.804 440.513 214.929 438.51 221.878 436.337C265.169 424.465 304.676 417.497 349.498 414.499C373.156 412.917 397.187 412.444 420.673 416.152C421.271 411.181 422.231 405.995 422.12 400.987C409.396 398.064 391.703 396.606 384.223 384.466C381.077 379.36 378.961 373.474 376.886 367.861C367.363 342.089 364.019 313.407 370.606 286.484C374.995 268.549 384.258 250.651 394.831 235.538C397.22 232.122 400.424 229.462 402.707 225.927C393.226 221.184 384.131 216.371 374.082 212.844C353.44 205.598 327.101 204.408 305.448 205.189C275.805 207.327 247.289 211.733 218.117 217.284C198.205 221.072 177.317 225.091 158.404 232.495C141.6 239.072 124.906 248.137 112.97 261.949C101.751 274.93 98.2399 289.698 99.5798 306.584C100.173 314.055 101.637 322.109 105.354 328.692C105.045 330.398 104.753 332.093 104.99 333.827C106.512 344.959 111.414 356.255 114.616 367.009Q125.843 405.044 137.95 442.808C140.819 451.803 144.378 460.604 147.065 469.65ZM407.771 230.227C383.082 260.995 369.958 291.364 374.384 331.578C374.994 337.125 375.645 342.643 376.91 348.087C378.875 356.536 386.558 379.899 392.994 385.236C396.981 388.543 401.467 389.28 406.076 391.173C411.852 392.746 417.859 393.807 423.764 394.778C429.486 361.929 439.109 315.249 436.773 282.58C435.866 269.883 433.47 256.979 425.992 246.408C421.478 240.027 415.056 233.368 407.771 230.227ZM696.805 208.214C665.372 210.654 651.504 213.727 623.569 229.012C628.38 235.452 633.338 241.736 637.601 248.57C653.979 274.828 663.59 306.522 659.09 337.607C657.029 351.845 645.523 387.341 633.373 396.111C626.061 401.389 612.315 402.938 603.523 403.623C603.495 408.854 603.473 414.161 603.859 419.38C625.407 418.082 646.962 417.245 668.558 417.912C706.948 419.097 746.674 424.75 783.93 433.947C795.763 436.869 807.948 439.705 819.372 444.001C838.217 450.871 859.877 459.84 876.142 471.689C887.345 441.6 897.199 408.391 906.251 377.535C909.816 365.381 914.326 353.355 917.314 341.059C918.407 336.561 918.448 331.874 919.429 327.354C921.079 319.754 923.054 312.51 923.5 304.687C924.04 295.225 922.486 286.235 918.521 277.623C908.208 255.222 882.788 241.526 860.591 233.384C834.532 223.825 806.399 219.422 779.097 215.211C751.891 211.014 724.463 206.622 696.805 208.214ZM602.67 398.812L620.966 395.074C630.721 391.835 634.045 387.15 638.517 378.273C654.078 347.379 658.502 317.666 647.367 284.421C642.259 269.171 635.273 255.842 625.829 242.86C623.531 239.701 621.206 236.208 618.377 233.509C614.147 236.999 609.643 240.415 605.826 244.358C595.196 255.336 590.322 270.427 588.877 285.391C587.245 302.293 589.818 319.579 592.449 336.259Q595.019 353.481 597.916 370.652C599.531 380.021 601.484 389.38 602.67 398.812Z"/>
	<path d="M190.71 283.741C192.805 283.918 253.78 311.693 255.742 313.451C256.324 315.084 256.03 315.394 255.526 317.002C254.515 317.287 253.211 317.747 252.158 317.591C248.098 316.99 202.403 295.273 196.121 291.721C194.207 290.639 191.455 289.268 190.437 287.257C189.82 286.038 190.319 284.931 190.71 283.741Z"/>
	<path d="M193.324 337.756C197.979 338.166 237.833 354.384 240.458 356.94C241.105 358.553 240.734 359.715 240.375 361.336C234.64 360.643 196.917 345.292 192.843 341.195C192.46 339.696 192.825 339.191 193.324 337.756Z"/>
	<path d="M830.964 285.876C831.959 285.956 832.578 286.19 833.501 286.543C834.449 287.63 834.505 287.548 834.459 288.974C833.698 290.318 832.914 291.018 831.619 291.862C823.987 296.837 815.01 300.501 806.811 304.479C795.422 310.004 784.109 315.789 772.638 321.129C771.47 321.229 771.021 321.138 770.002 320.558C769.474 319.467 769.014 318.822 769.264 317.58C770.205 316.104 771.349 315.259 772.842 314.355C777.781 311.367 783.267 309.271 788.444 306.735C802.608 299.797 817.008 293.218 830.964 285.876Z"/>
	<path d="M826.769 339.957C828.157 339.761 828.714 340.194 829.774 340.941C830.232 342.246 830.185 342.284 829.748 343.605C823.713 349.274 795.954 359.017 786.865 363.315C785.114 363.416 784.372 363.498 782.941 362.439C782.652 361.674 782.238 361.25 782.61 360.448C784.441 356.51 820.071 342.798 826.769 339.957Z"/>
</svg>
