<?xml version="1.0" encoding="UTF-8" standalone="no"?>
<!DOCTYPE svg PUBLIC "-//W3C//DTD SVG 1.1//EN" "http://www.w3.org/Graphics/SVG/1.1/DTD/svg11.dtd">
<svg xmlns="http://www.w3.org/2000/svg" version="1.1" viewBox="0.00 0.00 1024.00 1024.00">
<g stroke-width="2.00" fill="none" stroke-linecap="butt">
<path stroke="#fedfe0" vector-effect="non-scaling-stroke" d="
  M 439.17 286.80
  Q 441.88 299.65 447.52 316.73
  Q 458.02 348.54 476.29 372.91
  Q 480.67 378.75 487.48 385.31
  C 494.18 391.76 503.09 398.40 512.39 399.33
  C 520.37 400.12 526.69 397.62 533.48 393.76
  Q 542.66 388.54 550.78 383.31
  Q 551.34 382.95 551.70 383.49"
/>
<path stroke="#f5c2cd" vector-effect="non-scaling-stroke" d="
  M 551.70 383.49
  Q 553.61 390.48 554.61 400.50
  Q 555.94 413.88 552.55 424.69"
/>
<path stroke="#f5f7fe" vector-effect="non-scaling-stroke" d="
  M 552.55 424.69
  Q 550.22 422.89 547.75 423.14
  Q 536.39 424.29 526.02 425.25
  Q 509.78 426.74 489.59 433.61
  Q 476.19 438.17 463.22 447.04
  Q 453.32 453.81 446.45 460.26
  Q 435.68 470.37 422.86 483.62
  Q 421.85 484.67 421.00 483.78"
/>
<path stroke="#fedfe0" vector-effect="non-scaling-stroke" d="
  M 421.00 483.78
  Q 417.36 464.88 410.38 445.86
  Q 409.11 442.41 406.35 439.82"
/>
<path stroke="#9194a7" vector-effect="non-scaling-stroke" d="
  M 406.35 439.82
  C 414.46 439.66 417.05 432.12 412.28 426.18
  Q 408.98 422.08 403.48 418.26
  Q 388.05 407.55 369.17 401.16
  Q 336.23 390.00 302.24 399.88
  Q 257.39 412.90 240.19 455.03
  C 230.78 478.08 231.02 503.13 241.32 525.85
  C 250.35 545.76 267.20 565.00 285.20 577.48
  C 290.02 580.81 295.83 584.52 302.21 584.24"
/>
<path stroke="#fedfe0" vector-effect="non-scaling-stroke" d="
  M 302.21 584.24
  L 315.53 586.19"
/>
<path stroke="#9194a7" vector-effect="non-scaling-stroke" d="
  M 315.53 586.19
  Q 313.06 588.68 311.33 591.69
  C 299.09 613.04 293.82 636.44 291.67 661.53"
/>
<path stroke="#f5f7fe" vector-effect="non-scaling-stroke" d="
  M 291.67 661.53
  L 291.02 662.68
  Q 290.78 663.09 290.32 663.20
  Q 289.22 663.45 288.67 664.41
  Q 286.64 667.96 284.20 671.71
  Q 276.66 683.31 269.01 694.55
  Q 267.55 696.69 268.98 696.31"
/>
<path stroke="#b7b3f4" vector-effect="non-scaling-stroke" d="
  M 268.98 696.31
  L 268.59 696.40
  Q 268.21 696.48 267.98 696.79
  Q 266.83 698.34 265.90 699.89
  C 250.09 726.41 236.24 753.39 225.40 781.62
  Q 214.62 809.70 210.11 834.65
  C 207.00 851.87 205.98 872.06 212.86 888.30
  C 219.30 903.52 231.40 909.02 246.85 909.75
  C 273.07 911.00 298.82 902.07 322.52 891.35
  C 335.16 885.63 347.02 878.58 359.18 871.59"
/>
<path stroke="#f5f7fe" vector-effect="non-scaling-stroke" d="
  M 359.18 871.59
  Q 360.15 872.66 357.52 874.76
  Q 356.18 875.84 355.37 878.76
  Q 354.15 883.16 353.25 887.28
  Q 349.67 903.48 345.62 925.31
  Q 342.38 942.81 340.41 961.49
  A 1.24 1.24 0.0 0 0 341.63 962.86
  Q 384.83 963.56 427.23 963.62
  C 455.72 963.65 484.26 962.82 512.75 962.25
  Q 515.62 962.19 518.60 961.34"
/>
<path stroke="#b7b3f4" vector-effect="non-scaling-stroke" d="
  M 518.60 961.34
  Q 543.03 973.55 551.15 976.63
  Q 558.92 979.58 566.34 981.64
  C 606.74 992.84 646.59 976.67 675.73 948.19
  Q 691.92 932.36 703.82 913.41
  C 719.90 887.79 734.07 860.74 747.04 833.47
  Q 747.30 832.93 746.63 832.49"
/>
<path stroke="#f5f7fe" vector-effect="non-scaling-stroke" d="
  M 746.63 832.49
  Q 775.61 768.63 793.47 702.25
  Q 802.78 667.69 807.42 631.21"
/>
<path stroke="#9194a7" vector-effect="non-scaling-stroke" d="
  M 807.42 631.21
  Q 824.94 606.39 829.84 576.64
  C 837.83 528.14 825.53 476.94 805.22 432.78
  Q 793.90 408.19 781.10 387.75
  Q 770.93 371.51 761.10 354.94
  C 747.34 331.72 737.30 307.57 731.97 281.80
  Q 728.92 267.05 725.77 254.13
  Q 724.96 250.79 725.11 247.06
  C 726.31 218.22 722.27 190.82 711.53 163.93
  C 704.77 147.00 697.56 131.68 686.98 116.99
  C 662.45 82.94 624.49 63.29 583.13 58.82
  C 530.42 53.13 477.40 67.70 442.08 108.34
  C 398.82 158.09 387.35 237.47 439.17 286.80"
/>
<path stroke="#888ca6" vector-effect="non-scaling-stroke" d="
  M 807.42 631.21
  Q 811.39 603.37 808.86 579.49
  Q 805.01 543.26 781.58 513.65
  Q 762.90 490.04 738.36 474.48"
/>
<path stroke="#885775" vector-effect="non-scaling-stroke" d="
  M 738.36 474.48
  Q 731.53 470.44 725.24 466.58
  C 703.45 453.21 680.25 441.71 656.76 431.73
  A 1.53 1.52 -83.0 0 1 655.85 430.56
  Q 652.44 408.73 645.99 387.98
  Q 636.70 358.04 627.02 328.19"
/>
<path stroke="#917588" vector-effect="non-scaling-stroke" d="
  M 627.02 328.19
  Q 627.02 327.46 627.68 326.93
  C 645.00 312.83 662.14 297.36 676.52 280.57
  Q 677.64 279.26 677.48 277.49
  C 676.21 263.84 669.87 248.55 653.26 250.14
  C 643.56 251.06 639.62 257.36 636.69 265.81
  C 628.99 287.98 618.86 314.58 600.35 329.03
  Q 598.59 330.40 599.63 328.43
  Q 601.95 324.00 602.88 318.80
  C 606.59 298.05 600.69 274.73 589.14 257.30
  A 2.76 2.74 -20.6 0 0 586.48 256.10
  Q 542.28 262.02 500.71 245.78
  C 480.93 238.05 461.97 225.69 453.45 206.15
  A 1.13 1.13 0.0 0 0 452.48 205.48
  C 440.65 204.86 434.02 211.91 432.95 223.00
  Q 432.01 232.83 433.12 243.99
  Q 435.23 265.21 439.17 286.80"
/>
<path stroke="#aeacf3" vector-effect="non-scaling-stroke" d="
  M 746.63 832.49
  Q 746.02 832.23 745.25 831.76
  Q 704.87 807.44 659.02 788.84
  Q 621.88 773.78 581.54 762.73
  A 1.17 1.16 19.9 0 0 580.16 763.37
  Q 562.17 802.37 548.89 841.64
  A 1.06 1.05 -68.8 0 1 547.47 842.27
  C 520.59 830.32 498.34 819.42 468.99 804.43"
/>
<path stroke="#f4d8df" vector-effect="non-scaling-stroke" d="
  M 468.99 804.43
  Q 471.99 803.38 474.89 802.61
  C 484.76 800.01 494.10 795.21 503.23 789.48
  C 510.29 785.06 517.38 779.10 521.82 771.87
  C 525.61 765.69 526.82 757.37 523.36 750.96
  C 519.59 743.98 510.95 739.76 503.52 737.43
  Q 493.90 734.41 483.87 732.60
  Q 466.78 729.52 442.75 730.13"
/>
<path stroke="#888ca6" vector-effect="non-scaling-stroke" d="
  M 442.75 730.13
  Q 446.83 709.84 439.23 691.07"
/>
<path stroke="#f4d8df" vector-effect="non-scaling-stroke" d="
  M 439.23 691.07
  Q 450.75 690.45 462.24 688.75
  Q 507.49 682.06 550.62 668.13
  C 557.42 665.93 564.77 661.91 567.98 655.31
  C 573.43 644.09 567.98 629.71 560.28 620.89
  Q 559.52 620.01 560.31 619.16
  C 562.20 617.09 564.38 614.85 564.68 611.94
  C 565.61 602.69 557.58 602.11 551.01 603.36
  Q 540.40 605.37 531.47 611.06
  Q 526.01 614.54 520.72 617.96
  Q 519.58 618.69 518.25 618.90
  Q 483.93 624.28 449.46 623.63"
/>
<path stroke="#888ca6" vector-effect="non-scaling-stroke" d="
  M 449.46 623.63
  Q 458.48 620.28 467.09 615.57
  Q 481.01 607.93 493.48 598.78"
/>
<path stroke="#f4d8df" vector-effect="non-scaling-stroke" d="
  M 493.48 598.78
  Q 499.02 595.69 504.97 591.21
  Q 521.68 578.63 535.24 565.85
  C 536.00 565.13 538.21 564.16 539.23 563.94
  Q 552.07 561.15 563.83 553.88
  C 571.22 549.31 576.34 542.38 576.88 533.55
  C 577.57 522.32 569.86 512.56 558.65 511.16
  Q 547.59 509.78 536.76 515.41
  Q 531.33 518.24 526.23 521.57
  Q 524.76 522.53 523.21 523.27
  Q 521.56 524.05 520.06 524.71
  Q 497.30 534.69 474.57 543.96
  C 473.83 544.26 473.26 544.92 472.58 545.31"
/>
<path stroke="#888ca6" vector-effect="non-scaling-stroke" d="
  M 472.58 545.31
  L 424.40 564.61"
/>
<path stroke="#f4d8df" vector-effect="non-scaling-stroke" d="
  M 424.40 564.61
  Q 428.79 559.96 430.10 556.26
  C 431.50 552.30 431.34 547.46 430.68 542.76
  Q 426.54 513.18 421.00 483.78"
/>
<path stroke="#f5a3ae" vector-effect="non-scaling-stroke" d="
  M 627.02 328.19
  Q 626.10 328.11 625.57 328.56
  Q 613.20 339.02 600.16 348.64
  Q 576.67 365.97 552.36 382.11
  Q 552.02 382.34 551.70 383.49"
/>
<path stroke="#ecbacc" vector-effect="non-scaling-stroke" d="
  M 738.36 474.48
  Q 728.87 475.19 719.96 475.63
  Q 707.83 476.24 701.57 476.97
  Q 672.69 480.32 644.00 488.97
  Q 623.37 495.19 601.21 502.55
  C 590.67 506.04 580.29 508.56 569.40 507.69
  Q 556.13 506.62 546.29 497.05
  C 538.60 489.58 535.38 478.98 535.27 468.00
  Q 535.04 442.47 552.55 424.69"
/>
<path stroke="#917588" vector-effect="non-scaling-stroke" d="
  M 424.40 564.61
  Q 413.62 573.36 399.77 576.10
  Q 380.73 579.85 354.01 584.47
  Q 334.67 587.82 315.53 586.19"
/>
<path stroke="#aeacf3" vector-effect="non-scaling-stroke" d="
  M 518.60 961.34
  Q 499.91 952.07 481.53 942.25
  Q 441.29 920.76 404.39 894.75
  C 393.41 887.02 383.24 878.47 373.11 869.97
  Q 372.16 869.17 373.14 868.41
  Q 382.78 860.90 390.68 851.73"
/>
<path stroke="#b794d5" vector-effect="non-scaling-stroke" d="
  M 468.99 804.43
  L 435.34 785.81
  A 1.06 1.06 0.0 0 0 433.89 786.25
  C 421.73 809.59 408.19 831.87 390.68 851.73"
/>
<path stroke="#f4d8df" vector-effect="non-scaling-stroke" d="
  M 390.68 851.73
  Q 390.17 850.40 389.30 850.65"
/>
<path stroke="#b794d5" vector-effect="non-scaling-stroke" d="
  M 389.30 850.65
  L 389.73 850.33
  A 1.01 1.01 0.0 0 0 389.65 848.65
  Q 363.96 833.15 340.22 815.27
  Q 322.97 802.26 307.86 786.80"
/>
<path stroke="#917588" vector-effect="non-scaling-stroke" d="
  M 307.86 786.80
  Q 298.40 776.18 289.78 763.39"
/>
<path stroke="#b794d5" vector-effect="non-scaling-stroke" d="
  M 289.78 763.39
  Q 285.21 755.83 280.40 747.12
  Q 272.21 732.29 268.44 717.80
  Q 267.82 715.43 267.66 712.44
  C 267.40 707.51 271.23 705.25 275.69 707.02
  C 278.96 708.33 281.70 711.94 284.12 714.53
  C 287.48 718.13 289.85 722.40 293.05 726.14
  Q 296.40 730.04 294.08 725.45
  Q 292.34 722.04 290.42 718.52
  Q 288.79 715.56 287.25 711.28
  Q 285.31 705.90 283.02 700.86"
/>
<path stroke="#917588" vector-effect="non-scaling-stroke" d="
  M 449.46 623.63
  Q 434.20 622.50 420.21 618.49
  Q 419.67 618.34 419.15 618.52
  Q 416.54 619.46 414.95 621.89
  Q 411.18 627.65 407.83 634.87
  Q 398.11 655.79 392.35 676.52
  A 1.29 1.27 24.8 0 0 392.88 677.93
  Q 410.24 689.42 431.26 690.87
  Q 436.53 691.24 439.23 691.07"
/>
<path stroke="#917588" vector-effect="non-scaling-stroke" d="
  M 442.75 730.13
  Q 422.83 730.60 402.90 735.50
  A 1.42 1.42 0.0 0 1 401.22 734.61
  C 396.95 722.99 391.03 708.96 382.21 700.72
  C 376.50 695.38 368.50 697.39 368.03 705.89
  Q 367.60 713.56 368.80 720.93
  Q 371.03 734.60 375.30 751.04
  Q 375.73 752.68 374.52 751.50
  Q 358.32 735.68 345.16 718.42
  C 337.78 708.75 332.11 698.33 325.59 688.23
  C 322.57 683.55 318.18 677.69 313.22 674.99
  C 310.97 673.77 307.42 673.61 306.02 676.23
  C 302.36 683.10 308.20 699.64 311.17 706.82
  Q 311.24 707.01 311.06 707.10
  L 311.06 707.11
  Q 310.88 707.20 310.78 707.03
  Q 306.68 700.46 301.90 694.34
  Q 296.27 687.15 290.27 683.46"
/>
<path stroke="#888ca6" vector-effect="non-scaling-stroke" d="
  M 290.27 683.46
  C 289.87 676.32 290.89 668.64 291.67 661.53"
/>
<path stroke="#917588" vector-effect="non-scaling-stroke" d="
  M 493.48 598.78
  C 485.20 581.37 478.29 563.55 472.58 545.31"
/>
<path stroke="#917588" vector-effect="non-scaling-stroke" d="
  M 406.35 439.82
  Q 400.46 438.81 397.65 433.36
  A 0.61 0.61 0.0 0 0 396.54 433.42
  Q 391.68 445.74 381.73 455.55
  Q 373.67 463.49 365.70 470.84
  Q 361.09 475.09 359.83 481.26
  Q 358.30 488.82 356.59 496.86
  Q 352.27 517.19 343.95 536.99
  Q 337.28 552.86 327.48 564.98
  Q 317.14 577.76 302.21 584.24"
/>
<path stroke="#f4d8df" vector-effect="non-scaling-stroke" d="
  M 290.27 683.46
  Q 290.38 684.05 289.78 683.81
  Q 286.62 682.52 284.11 683.80
  C 280.77 685.51 280.86 691.15 281.56 694.23
  Q 282.30 697.50 283.02 700.86"
/>
<path stroke="#aeacf3" vector-effect="non-scaling-stroke" d="
  M 283.02 700.86
  L 268.98 696.31"
/>
<path stroke="#4a499c" vector-effect="non-scaling-stroke" d="
  M 289.78 763.39
  L 289.52 789.76
  A 0.89 0.88 -6.0 0 0 290.60 790.63
  L 307.86 786.80"
/>
<path stroke="#aeacf3" vector-effect="non-scaling-stroke" d="
  M 389.30 850.65
  Q 374.45 861.85 359.18 871.59"
/>
</g>
<path fill="#fefeff" d="
  M 0.00 0.00
  L 1024.00 0.00
  L 1024.00 1024.00
  L 0.00 1024.00
  L 0.00 0.00
  Z
  M 439.17 286.80
  Q 441.88 299.65 447.52 316.73
  Q 458.02 348.54 476.29 372.91
  Q 480.67 378.75 487.48 385.31
  C 494.18 391.76 503.09 398.40 512.39 399.33
  C 520.37 400.12 526.69 397.62 533.48 393.76
  Q 542.66 388.54 550.78 383.31
  Q 551.34 382.95 551.70 383.49
  Q 553.61 390.48 554.61 400.50
  Q 555.94 413.88 552.55 424.69
  Q 550.22 422.89 547.75 423.14
  Q 536.39 424.29 526.02 425.25
  Q 509.78 426.74 489.59 433.61
  Q 476.19 438.17 463.22 447.04
  Q 453.32 453.81 446.45 460.26
  Q 435.68 470.37 422.86 483.62
  Q 421.85 484.67 421.00 483.78
  Q 417.36 464.88 410.38 445.86
  Q 409.11 442.41 406.35 439.82
  C 414.46 439.66 417.05 432.12 412.28 426.18
  Q 408.98 422.08 403.48 418.26
  Q 388.05 407.55 369.17 401.16
  Q 336.23 390.00 302.24 399.88
  Q 257.39 412.90 240.19 455.03
  C 230.78 478.08 231.02 503.13 241.32 525.85
  C 250.35 545.76 267.20 565.00 285.20 577.48
  C 290.02 580.81 295.83 584.52 302.21 584.24
  L 315.53 586.19
  Q 313.06 588.68 311.33 591.69
  C 299.09 613.04 293.82 636.44 291.67 661.53
  L 291.02 662.68
  Q 290.78 663.09 290.32 663.20
  Q 289.22 663.45 288.67 664.41
  Q 286.64 667.96 284.20 671.71
  Q 276.66 683.31 269.01 694.55
  Q 267.55 696.69 268.98 696.31
  L 268.59 696.40
  Q 268.21 696.48 267.98 696.79
  Q 266.83 698.34 265.90 699.89
  C 250.09 726.41 236.24 753.39 225.40 781.62
  Q 214.62 809.70 210.11 834.65
  C 207.00 851.87 205.98 872.06 212.86 888.30
  C 219.30 903.52 231.40 909.02 246.85 909.75
  C 273.07 911.00 298.82 902.07 322.52 891.35
  C 335.16 885.63 347.02 878.58 359.18 871.59
  Q 360.15 872.66 357.52 874.76
  Q 356.18 875.84 355.37 878.76
  Q 354.15 883.16 353.25 887.28
  Q 349.67 903.48 345.62 925.31
  Q 342.38 942.81 340.41 961.49
  A 1.24 1.24 0.0 0 0 341.63 962.86
  Q 384.83 963.56 427.23 963.62
  C 455.72 963.65 484.26 962.82 512.75 962.25
  Q 515.62 962.19 518.60 961.34
  Q 543.03 973.55 551.15 976.63
  Q 558.92 979.58 566.34 981.64
  C 606.74 992.84 646.59 976.67 675.73 948.19
  Q 691.92 932.36 703.82 913.41
  C 719.90 887.79 734.07 860.74 747.04 833.47
  Q 747.30 832.93 746.63 832.49
  Q 775.61 768.63 793.47 702.25
  Q 802.78 667.69 807.42 631.21
  Q 824.94 606.39 829.84 576.64
  C 837.83 528.14 825.53 476.94 805.22 432.78
  Q 793.90 408.19 781.10 387.75
  Q 770.93 371.51 761.10 354.94
  C 747.34 331.72 737.30 307.57 731.97 281.80
  Q 728.92 267.05 725.77 254.13
  Q 724.96 250.79 725.11 247.06
  C 726.31 218.22 722.27 190.82 711.53 163.93
  C 704.77 147.00 697.56 131.68 686.98 116.99
  C 662.45 82.94 624.49 63.29 583.13 58.82
  C 530.42 53.13 477.40 67.70 442.08 108.34
  C 398.82 158.09 387.35 237.47 439.17 286.80
  Z"
/>
<path fill="#24294f" d="
  M 807.42 631.21
  Q 811.39 603.37 808.86 579.49
  Q 805.01 543.26 781.58 513.65
  Q 762.90 490.04 738.36 474.48
  Q 731.53 470.44 725.24 466.58
  C 703.45 453.21 680.25 441.71 656.76 431.73
  A 1.53 1.52 -83.0 0 1 655.85 430.56
  Q 652.44 408.73 645.99 387.98
  Q 636.70 358.04 627.02 328.19
  Q 627.02 327.46 627.68 326.93
  C 645.00 312.83 662.14 297.36 676.52 280.57
  Q 677.64 279.26 677.48 277.49
  C 676.21 263.84 669.87 248.55 653.26 250.14
  C 643.56 251.06 639.62 257.36 636.69 265.81
  C 628.99 287.98 618.86 314.58 600.35 329.03
  Q 598.59 330.40 599.63 328.43
  Q 601.95 324.00 602.88 318.80
  C 606.59 298.05 600.69 274.73 589.14 257.30
  A 2.76 2.74 -20.6 0 0 586.48 256.10
  Q 542.28 262.02 500.71 245.78
  C 480.93 238.05 461.97 225.69 453.45 206.15
  A 1.13 1.13 0.0 0 0 452.48 205.48
  C 440.65 204.86 434.02 211.91 432.95 223.00
  Q 432.01 232.83 433.12 243.99
  Q 435.23 265.21 439.17 286.80
  C 387.35 237.47 398.82 158.09 442.08 108.34
  C 477.40 67.70 530.42 53.13 583.13 58.82
  C 624.49 63.29 662.45 82.94 686.98 116.99
  C 697.56 131.68 704.77 147.00 711.53 163.93
  C 722.27 190.82 726.31 218.22 725.11 247.06
  Q 724.96 250.79 725.77 254.13
  Q 728.92 267.05 731.97 281.80
  C 737.30 307.57 747.34 331.72 761.10 354.94
  Q 770.93 371.51 781.10 387.75
  Q 793.90 408.19 805.22 432.78
  C 825.53 476.94 837.83 528.14 829.84 576.64
  Q 824.94 606.39 807.42 631.21
  Z"
/>
<path fill="#fdc0c1" d="
  M 627.02 328.19
  Q 626.10 328.11 625.57 328.56
  Q 613.20 339.02 600.16 348.64
  Q 576.67 365.97 552.36 382.11
  Q 552.02 382.34 551.70 383.49
  Q 551.34 382.95 550.78 383.31
  Q 542.66 388.54 533.48 393.76
  C 526.69 397.62 520.37 400.12 512.39 399.33
  C 503.09 398.40 494.18 391.76 487.48 385.31
  Q 480.67 378.75 476.29 372.91
  Q 458.02 348.54 447.52 316.73
  Q 441.88 299.65 439.17 286.80
  Q 435.23 265.21 433.12 243.99
  Q 432.01 232.83 432.95 223.00
  C 434.02 211.91 440.65 204.86 452.48 205.48
  A 1.13 1.13 0.0 0 1 453.45 206.15
  C 461.97 225.69 480.93 238.05 500.71 245.78
  Q 542.28 262.02 586.48 256.10
  A 2.76 2.74 -20.6 0 1 589.14 257.30
  C 600.69 274.73 606.59 298.05 602.88 318.80
  Q 601.95 324.00 599.63 328.43
  Q 598.59 330.40 600.35 329.03
  C 618.86 314.58 628.99 287.98 636.69 265.81
  C 639.62 257.36 643.56 251.06 653.26 250.14
  C 669.87 248.55 676.21 263.84 677.48 277.49
  Q 677.64 279.26 676.52 280.57
  C 662.14 297.36 645.00 312.83 627.68 326.93
  Q 627.02 327.46 627.02 328.19
  Z"
/>
<path fill="#ec859b" d="
  M 627.02 328.19
  Q 636.70 358.04 645.99 387.98
  Q 652.44 408.73 655.85 430.56
  A 1.53 1.52 -83.0 0 0 656.76 431.73
  C 680.25 441.71 703.45 453.21 725.24 466.58
  Q 731.53 470.44 738.36 474.48
  Q 728.87 475.19 719.96 475.63
  Q 707.83 476.24 701.57 476.97
  Q 672.69 480.32 644.00 488.97
  Q 623.37 495.19 601.21 502.55
  C 590.67 506.04 580.29 508.56 569.40 507.69
  Q 556.13 506.62 546.29 497.05
  C 538.60 489.58 535.38 478.98 535.27 468.00
  Q 535.04 442.47 552.55 424.69
  Q 555.94 413.88 554.61 400.50
  Q 553.61 390.48 551.70 383.49
  Q 552.02 382.34 552.36 382.11
  Q 576.67 365.97 600.16 348.64
  Q 613.20 339.02 625.57 328.56
  Q 626.10 328.11 627.02 328.19
  Z"
/>
<path fill="#24294f" d="
  M 406.35 439.82
  Q 400.46 438.81 397.65 433.36
  A 0.61 0.61 0.0 0 0 396.54 433.42
  Q 391.68 445.74 381.73 455.55
  Q 373.67 463.49 365.70 470.84
  Q 361.09 475.09 359.83 481.26
  Q 358.30 488.82 356.59 496.86
  Q 352.27 517.19 343.95 536.99
  Q 337.28 552.86 327.48 564.98
  Q 317.14 577.76 302.21 584.24
  C 295.83 584.52 290.02 580.81 285.20 577.48
  C 267.20 565.00 250.35 545.76 241.32 525.85
  C 231.02 503.13 230.78 478.08 240.19 455.03
  Q 257.39 412.90 302.24 399.88
  Q 336.23 390.00 369.17 401.16
  Q 388.05 407.55 403.48 418.26
  Q 408.98 422.08 412.28 426.18
  C 417.05 432.12 414.46 439.66 406.35 439.82
  Z"
/>
<path fill="#ebeffd" d="
  M 552.55 424.69
  Q 535.04 442.47 535.27 468.00
  C 535.38 478.98 538.60 489.58 546.29 497.05
  Q 556.13 506.62 569.40 507.69
  C 580.29 508.56 590.67 506.04 601.21 502.55
  Q 623.37 495.19 644.00 488.97
  Q 672.69 480.32 701.57 476.97
  Q 707.83 476.24 719.96 475.63
  Q 728.87 475.19 738.36 474.48
  Q 762.90 490.04 781.58 513.65
  Q 805.01 543.26 808.86 579.49
  Q 811.39 603.37 807.42 631.21
  Q 802.78 667.69 793.47 702.25
  Q 775.61 768.63 746.63 832.49
  Q 746.02 832.23 745.25 831.76
  Q 704.87 807.44 659.02 788.84
  Q 621.88 773.78 581.54 762.73
  A 1.17 1.16 19.9 0 0 580.16 763.37
  Q 562.17 802.37 548.89 841.64
  A 1.06 1.05 -68.8 0 1 547.47 842.27
  C 520.59 830.32 498.34 819.42 468.99 804.43
  Q 471.99 803.38 474.89 802.61
  C 484.76 800.01 494.10 795.21 503.23 789.48
  C 510.29 785.06 517.38 779.10 521.82 771.87
  C 525.61 765.69 526.82 757.37 523.36 750.96
  C 519.59 743.98 510.95 739.76 503.52 737.43
  Q 493.90 734.41 483.87 732.60
  Q 466.78 729.52 442.75 730.13
  Q 446.83 709.84 439.23 691.07
  Q 450.75 690.45 462.24 688.75
  Q 507.49 682.06 550.62 668.13
  C 557.42 665.93 564.77 661.91 567.98 655.31
  C 573.43 644.09 567.98 629.71 560.28 620.89
  Q 559.52 620.01 560.31 619.16
  C 562.20 617.09 564.38 614.85 564.68 611.94
  C 565.61 602.69 557.58 602.11 551.01 603.36
  Q 540.40 605.37 531.47 611.06
  Q 526.01 614.54 520.72 617.96
  Q 519.58 618.69 518.25 618.90
  Q 483.93 624.28 449.46 623.63
  Q 458.48 620.28 467.09 615.57
  Q 481.01 607.93 493.48 598.78
  Q 499.02 595.69 504.97 591.21
  Q 521.68 578.63 535.24 565.85
  C 536.00 565.13 538.21 564.16 539.23 563.94
  Q 552.07 561.15 563.83 553.88
  C 571.22 549.31 576.34 542.38 576.88 533.55
  C 577.57 522.32 569.86 512.56 558.65 511.16
  Q 547.59 509.78 536.76 515.41
  Q 531.33 518.24 526.23 521.57
  Q 524.76 522.53 523.21 523.27
  Q 521.56 524.05 520.06 524.71
  Q 497.30 534.69 474.57 543.96
  C 473.83 544.26 473.26 544.92 472.58 545.31
  L 424.40 564.61
  Q 428.79 559.96 430.10 556.26
  C 431.50 552.30 431.34 547.46 430.68 542.76
  Q 426.54 513.18 421.00 483.78
  Q 421.85 484.67 422.86 483.62
  Q 435.68 470.37 446.45 460.26
  Q 453.32 453.81 463.22 447.04
  Q 476.19 438.17 489.59 433.61
  Q 509.78 426.74 526.02 425.25
  Q 536.39 424.29 547.75 423.14
  Q 550.22 422.89 552.55 424.69
  Z"
/>
<path fill="#fdc0c1" d="
  M 406.35 439.82
  Q 409.11 442.41 410.38 445.86
  Q 417.36 464.88 421.00 483.78
  Q 426.54 513.18 430.68 542.76
  C 431.34 547.46 431.50 552.30 430.10 556.26
  Q 428.79 559.96 424.40 564.61
  Q 413.62 573.36 399.77 576.10
  Q 380.73 579.85 354.01 584.47
  Q 334.67 587.82 315.53 586.19
  L 302.21 584.24
  Q 317.14 577.76 327.48 564.98
  Q 337.28 552.86 343.95 536.99
  Q 352.27 517.19 356.59 496.86
  Q 358.30 488.82 359.83 481.26
  Q 361.09 475.09 365.70 470.84
  Q 373.67 463.49 381.73 455.55
  Q 391.68 445.74 396.54 433.42
  A 0.61 0.61 0.0 0 1 397.65 433.36
  Q 400.46 438.81 406.35 439.82
  Z"
/>
<path fill="#fdc0c1" d="
  M 493.48 598.78
  C 485.20 581.37 478.29 563.55 472.58 545.31
  C 473.26 544.92 473.83 544.26 474.57 543.96
  Q 497.30 534.69 520.06 524.71
  Q 521.56 524.05 523.21 523.27
  Q 524.76 522.53 526.23 521.57
  Q 531.33 518.24 536.76 515.41
  Q 547.59 509.78 558.65 511.16
  C 569.86 512.56 577.57 522.32 576.88 533.55
  C 576.34 542.38 571.22 549.31 563.83 553.88
  Q 552.07 561.15 539.23 563.94
  C 538.21 564.16 536.00 565.13 535.24 565.85
  Q 521.68 578.63 504.97 591.21
  Q 499.02 595.69 493.48 598.78
  Z"
/>
<path fill="#24294f" d="
  M 472.58 545.31
  C 478.29 563.55 485.20 581.37 493.48 598.78
  Q 481.01 607.93 467.09 615.57
  Q 458.48 620.28 449.46 623.63
  Q 434.20 622.50 420.21 618.49
  Q 419.67 618.34 419.15 618.52
  Q 416.54 619.46 414.95 621.89
  Q 411.18 627.65 407.83 634.87
  Q 398.11 655.79 392.35 676.52
  A 1.29 1.27 24.8 0 0 392.88 677.93
  Q 410.24 689.42 431.26 690.87
  Q 436.53 691.24 439.23 691.07
  Q 446.83 709.84 442.75 730.13
  Q 422.83 730.60 402.90 735.50
  A 1.42 1.42 0.0 0 1 401.22 734.61
  C 396.95 722.99 391.03 708.96 382.21 700.72
  C 376.50 695.38 368.50 697.39 368.03 705.89
  Q 367.60 713.56 368.80 720.93
  Q 371.03 734.60 375.30 751.04
  Q 375.73 752.68 374.52 751.50
  Q 358.32 735.68 345.16 718.42
  C 337.78 708.75 332.11 698.33 325.59 688.23
  C 322.57 683.55 318.18 677.69 313.22 674.99
  C 310.97 673.77 307.42 673.61 306.02 676.23
  C 302.36 683.10 308.20 699.64 311.17 706.82
  Q 311.24 707.01 311.06 707.10
  L 311.06 707.11
  Q 310.88 707.20 310.78 707.03
  Q 306.68 700.46 301.90 694.34
  Q 296.27 687.15 290.27 683.46
  C 289.87 676.32 290.89 668.64 291.67 661.53
  C 293.82 636.44 299.09 613.04 311.33 591.69
  Q 313.06 588.68 315.53 586.19
  Q 334.67 587.82 354.01 584.47
  Q 380.73 579.85 399.77 576.10
  Q 413.62 573.36 424.40 564.61
  L 472.58 545.31
  Z"
/>
<path fill="#fdc0c1" d="
  M 439.23 691.07
  Q 436.53 691.24 431.26 690.87
  Q 410.24 689.42 392.88 677.93
  A 1.29 1.27 24.8 0 1 392.35 676.52
  Q 398.11 655.79 407.83 634.87
  Q 411.18 627.65 414.95 621.89
  Q 416.54 619.46 419.15 618.52
  Q 419.67 618.34 420.21 618.49
  Q 434.20 622.50 449.46 623.63
  Q 483.93 624.28 518.25 618.90
  Q 519.58 618.69 520.72 617.96
  Q 526.01 614.54 531.47 611.06
  Q 540.40 605.37 551.01 603.36
  C 557.58 602.11 565.61 602.69 564.68 611.94
  C 564.38 614.85 562.20 617.09 560.31 619.16
  Q 559.52 620.01 560.28 620.89
  C 567.98 629.71 573.43 644.09 567.98 655.31
  C 564.77 661.91 557.42 665.93 550.62 668.13
  Q 507.49 682.06 462.24 688.75
  Q 450.75 690.45 439.23 691.07
  Z"
/>
<path fill="#ebeffd" d="
  M 291.67 661.53
  C 290.89 668.64 289.87 676.32 290.27 683.46
  Q 290.38 684.05 289.78 683.81
  Q 286.62 682.52 284.11 683.80
  C 280.77 685.51 280.86 691.15 281.56 694.23
  Q 282.30 697.50 283.02 700.86
  L 268.98 696.31
  Q 267.55 696.69 269.01 694.55
  Q 276.66 683.31 284.20 671.71
  Q 286.64 667.96 288.67 664.41
  Q 289.22 663.45 290.32 663.20
  Q 290.78 663.09 291.02 662.68
  L 291.67 661.53
  Z"
/>
<path fill="#fdc0c1" d="
  M 442.75 730.13
  Q 466.78 729.52 483.87 732.60
  Q 493.90 734.41 503.52 737.43
  C 510.95 739.76 519.59 743.98 523.36 750.96
  C 526.82 757.37 525.61 765.69 521.82 771.87
  C 517.38 779.10 510.29 785.06 503.23 789.48
  C 494.10 795.21 484.76 800.01 474.89 802.61
  Q 471.99 803.38 468.99 804.43
  L 435.34 785.81
  A 1.06 1.06 0.0 0 0 433.89 786.25
  C 421.73 809.59 408.19 831.87 390.68 851.73
  Q 390.17 850.40 389.30 850.65
  L 389.73 850.33
  A 1.01 1.01 0.0 0 0 389.65 848.65
  Q 363.96 833.15 340.22 815.27
  Q 322.97 802.26 307.86 786.80
  Q 298.40 776.18 289.78 763.39
  Q 285.21 755.83 280.40 747.12
  Q 272.21 732.29 268.44 717.80
  Q 267.82 715.43 267.66 712.44
  C 267.40 707.51 271.23 705.25 275.69 707.02
  C 278.96 708.33 281.70 711.94 284.12 714.53
  C 287.48 718.13 289.85 722.40 293.05 726.14
  Q 296.40 730.04 294.08 725.45
  Q 292.34 722.04 290.42 718.52
  Q 288.79 715.56 287.25 711.28
  Q 285.31 705.90 283.02 700.86
  Q 282.30 697.50 281.56 694.23
  C 280.86 691.15 280.77 685.51 284.11 683.80
  Q 286.62 682.52 289.78 683.81
  Q 290.38 684.05 290.27 683.46
  Q 296.27 687.15 301.90 694.34
  Q 306.68 700.46 310.78 707.03
  Q 310.88 707.20 311.06 707.11
  L 311.06 707.10
  Q 311.24 707.01 311.17 706.82
  C 308.20 699.64 302.36 683.10 306.02 676.23
  C 307.42 673.61 310.97 673.77 313.22 674.99
  C 318.18 677.69 322.57 683.55 325.59 688.23
  C 332.11 698.33 337.78 708.75 345.16 718.42
  Q 358.32 735.68 374.52 751.50
  Q 375.73 752.68 375.30 751.04
  Q 371.03 734.60 368.80 720.93
  Q 367.60 713.56 368.03 705.89
  C 368.50 697.39 376.50 695.38 382.21 700.72
  C 391.03 708.96 396.95 722.99 401.22 734.61
  A 1.42 1.42 0.0 0 0 402.90 735.50
  Q 422.83 730.60 442.75 730.13
  Z"
/>
<path fill="#7068e9" d="
  M 268.98 696.31
  L 283.02 700.86
  Q 285.31 705.90 287.25 711.28
  Q 288.79 715.56 290.42 718.52
  Q 292.34 722.04 294.08 725.45
  Q 296.40 730.04 293.05 726.14
  C 289.85 722.40 287.48 718.13 284.12 714.53
  C 281.70 711.94 278.96 708.33 275.69 707.02
  C 271.23 705.25 267.40 707.51 267.66 712.44
  Q 267.82 715.43 268.44 717.80
  Q 272.21 732.29 280.40 747.12
  Q 285.21 755.83 289.78 763.39
  L 289.52 789.76
  A 0.89 0.88 -6.0 0 0 290.60 790.63
  L 307.86 786.80
  Q 322.97 802.26 340.22 815.27
  Q 363.96 833.15 389.65 848.65
  A 1.01 1.01 0.0 0 1 389.73 850.33
  L 389.30 850.65
  Q 374.45 861.85 359.18 871.59
  C 347.02 878.58 335.16 885.63 322.52 891.35
  C 298.82 902.07 273.07 911.00 246.85 909.75
  C 231.40 909.02 219.30 903.52 212.86 888.30
  C 205.98 872.06 207.00 851.87 210.11 834.65
  Q 214.62 809.70 225.40 781.62
  C 236.24 753.39 250.09 726.41 265.90 699.89
  Q 266.83 698.34 267.98 696.79
  Q 268.21 696.48 268.59 696.40
  L 268.98 696.31
  Z"
/>
<path fill="#7068e9" d="
  M 746.63 832.49
  Q 747.30 832.93 747.04 833.47
  C 734.07 860.74 719.90 887.79 703.82 913.41
  Q 691.92 932.36 675.73 948.19
  C 646.59 976.67 606.74 992.84 566.34 981.64
  Q 558.92 979.58 551.15 976.63
  Q 543.03 973.55 518.60 961.34
  Q 499.91 952.07 481.53 942.25
  Q 441.29 920.76 404.39 894.75
  C 393.41 887.02 383.24 878.47 373.11 869.97
  Q 372.16 869.17 373.14 868.41
  Q 382.78 860.90 390.68 851.73
  C 408.19 831.87 421.73 809.59 433.89 786.25
  A 1.06 1.06 0.0 0 1 435.34 785.81
  L 468.99 804.43
  C 498.34 819.42 520.59 830.32 547.47 842.27
  A 1.06 1.05 -68.8 0 0 548.89 841.64
  Q 562.17 802.37 580.16 763.37
  A 1.17 1.16 19.9 0 1 581.54 762.73
  Q 621.88 773.78 659.02 788.84
  Q 704.87 807.44 745.25 831.76
  Q 746.02 832.23 746.63 832.49
  Z"
/>
<path fill="#24294f" d="
  M 289.78 763.39
  Q 298.40 776.18 307.86 786.80
  L 290.60 790.63
  A 0.89 0.88 -6.0 0 1 289.52 789.76
  L 289.78 763.39
  Z"
/>
<path fill="#ebeffd" d="
  M 389.30 850.65
  Q 390.17 850.40 390.68 851.73
  Q 382.78 860.90 373.14 868.41
  Q 372.16 869.17 373.11 869.97
  C 383.24 878.47 393.41 887.02 404.39 894.75
  Q 441.29 920.76 481.53 942.25
  Q 499.91 952.07 518.60 961.34
  Q 515.62 962.19 512.75 962.25
  C 484.26 962.82 455.72 963.65 427.23 963.62
  Q 384.83 963.56 341.63 962.86
  A 1.24 1.24 0.0 0 1 340.41 961.49
  Q 342.38 942.81 345.62 925.31
  Q 349.67 903.48 353.25 887.28
  Q 354.15 883.16 355.37 878.76
  Q 356.18 875.84 357.52 874.76
  Q 360.15 872.66 359.18 871.59
  Q 374.45 861.85 389.30 850.65
  Z"
/>
</svg>
